# xmcd
#
# Track frame offsets: 
#        150
#        13206
#        24526
#        40091
#        51437
#        65755
#        77495
#        98080
#        117518
#        132432
#
# Disc length: 1875 seconds
#
# Revision: 1
# Processed by: cddbd v1.5.2PL0 Copyright (c) Steve Scherf et al.
# Submitted via: ExactAudioCopyFreeDBPlugin 1.0
#
DISCID=8707510a
DTITLE=The Dayton Sidewinders - Let's Go Down to Funksville
DYEAR=2008
DGENRE=Soul
TTITLE0=Funky Chicken Stew
TTITLE1=Go Ahead On
TTITLE2=Phoenix
TTITLE3=Something
TTITLE4=Funky in Here
TTITLE5=Let's Go Down to Funksville
TTITLE6=Slippin' Into Darkness
TTITLE7=Oh Me Oh My
TTITLE8=Heavenly Love
TTITLE9=You're the One
EXTD=
EXTT0=
EXTT1=
EXTT2=
EXTT3=
EXTT4=
EXTT5=
EXTT6=
EXTT7=
EXTT8=
EXTT9=
PLAYORDER=
